<svg xmlns="http://www.w3.org/2000/svg" width="15.08434" height="50.52673" viewBox="0 0 15.08434 50.52673" creator="Katerina Limpitsouni"><path d="M6.82597,43.00961c1.29614,.1767,2.22034,1.152,2.57466,2.36426,.17995,.61566,.20412,1.20299,.02686,1.79945-.15947,.53656-.5373,1.03752-.98907,1.33238-.13456,.08782-.27524,.16455-.41968,.23468-.10404,.05051-.18194,.07931-.37649,.13757-.15606,.04673-.31441,.08194-.47437,.11222-.13672,.02588,.03939,.00091-.09928,.01512-.1003,.01028-.2009,.01768-.30166,.02141-.16405,.00608-.3284,.00299-.49212-.00883-.03576-.00258-.25917-.0271-.13938-.01039-.08731-.01217-.17423-.0287-.26048-.04682-.15978-.03357-.31777-.07579-.47276-.12719-.07117-.0236-.1419-.04894-.21163-.07652,.09286,.03673-.12204-.05665-.16175-.07668-.14368-.07247-.28283-.1539-.41608-.24412-.0292-.01977-.19602-.1483-.115-.08173-.06666-.05477-.13107-.11232-.1933-.17206-.06237-.05987-.12259-.12198-.18007-.18658-.01953-.02195-.13261-.16224-.07034-.07967-.10699-.14184-.19933-.29636-.27895-.45502-.07519-.14985-.08496-.18253-.14036-.37754-.02512-.0884-.04664-.17781-.06424-.26802-.00751-.03852-.01457-.07727-.02028-.1161-.01901-.12931,.00836,.09591-.00205-.03436-.01359-.17005-.01787-.34021-.0089-.51066,.01211-.23001,.00908-.20201,.05798-.4276,.16143-.74467,.50024-1.35894,1.03506-1.88165,.52166-.50985,1.18609-.82013,1.87399-.83749,.96351-.02432,.96721-1.52441,0-1.5-1.94125,.049-3.50448,1.44972-4.17333,3.20858-.67569,1.77686-.16236,3.76916,1.37207,4.90767,1.40558,1.0429,3.39528,1.1638,4.96964,.45817,1.664-.74581,2.55847-2.51727,2.33052-4.30131-.25267-1.97748-1.70872-3.93514-3.78045-4.21758-.40082-.05464-.80521,.09666-.92259,.52383-.09612,.3498,.11986,.86752,.52383,.92259h0Z" fill="#6c63ff" origin="undraw"/><path d="M6.94482,34.97424c-1.60825-5.17464-2.73778-10.52642-3.75147-15.84445-.53875-2.82637-1.03192-5.66732-1.36909-8.52555-.22002-1.86514-.55032-3.94035-.24476-5.81542,.42371-2.60009,3.64404-3.14035,5.81721-3.20211,1.52228-.04326,3.19884-.13366,4.51247,.77103,.73104,.50347,1.47114,1.17006,1.60978,2.03698,.2937,1.83646-.20554,3.91588-.55283,5.70849-.52583,2.71412-1.21314,5.39728-1.95023,8.06083-1.56865,5.66847-3.31037,11.35327-5.51749,16.8102-.36182,.89458,1.08853,1.28362,1.44642,.39876,2.11331-5.22501,3.78818-10.66041,5.31412-16.08146,.83927-2.98156,1.62371-5.98796,2.20025-9.03269,.36894-1.94839,.82587-4.09689,.53042-6.08582C14.65072,1.89168,12.14327,.40601,10.02478,.14955,6.95729-.22179,3.3337-.053,1.18581,2.43197-.05507,3.86759-.05341,5.4445,.032,7.27813c.12803,2.74883,.54563,5.49081,.99289,8.20286,1.10129,6.67786,2.46268,13.42202,4.47351,19.89201,.28558,.91888,1.73406,.52674,1.44642-.39876h0Z" fill="#6c63ff"/></svg>